<svg width="13" height="18" viewBox="0 0 13 18" fill="none" xmlns="http://www.w3.org/2000/svg">
<path d="M0.656465 18V0.48H6.20047C7.36847 0.48 8.37647 0.696 9.22447 1.128C10.0885 1.56 10.7605 2.168 11.2405 2.952C11.7205 3.72 11.9605 4.632 11.9605 5.688C11.9605 6.84 11.6645 7.856 11.0725 8.736C10.4965 9.616 9.71247 10.24 8.72047 10.608L12.2005 18H8.84047L5.79247 11.04H3.65647V18H0.656465ZM3.65647 8.4H6.20047C7.04847 8.4 7.71247 8.168 8.19247 7.704C8.67247 7.24 8.91247 6.6 8.91247 5.784C8.91247 4.952 8.67247 4.304 8.19247 3.84C7.71247 3.36 7.04847 3.12 6.20047 3.12H3.65647V8.4Z" fill="white"/>
</svg>
